<?xml version="1.0" standalone="no"?>
<!DOCTYPE svg PUBLIC "-//W3C//DTD SVG 20010904//EN"
 "http://www.w3.org/TR/2001/REC-SVG-20010904/DTD/svg10.dtd">
<svg version="1.0" xmlns="http://www.w3.org/2000/svg"
 width="512.000000pt" height="512.000000pt" viewBox="0 0 512.000000 512.000000"
 preserveAspectRatio="xMidYMid meet">
<metadata>
Created by potrace 1.16, written by Peter Selinger 2001-2019
</metadata>
<g transform="translate(0.000000,512.000000) scale(0.100000,-0.100000)"
fill="#000000" stroke="none">
<path d="M1024 4904 c-137 -92 -405 -360 -498 -498 -45 -67 -26 -176 37 -216
95 -59 641 -370 650 -370 7 1 30 26 52 57 52 72 216 236 288 288 31 22 56 45
57 52 0 9 -313 559 -370 650 -40 63 -149 82 -216 37z m167 -7 c26 -17 77 -97
222 -346 103 -178 187 -327 187 -331 0 -4 -25 -27 -57 -50 -86 -66 -195 -173
-264 -261 -34 -43 -65 -79 -69 -79 -6 0 -593 337 -638 366 -37 24 -62 74 -62
126 0 39 7 55 46 107 114 151 325 361 462 459 57 41 121 44 173 9z"/>
<path d="M3929 4909 c-19 -12 -41 -31 -49 -42 -57 -91 -370 -641 -370 -650 1
-7 26 -30 57 -52 72 -52 236 -216 288 -288 22 -31 45 -56 52 -57 9 0 559 313
650 370 64 41 82 149 36 218 -92 135 -361 405 -497 496 -49 33 -115 35 -167 5z
m173 -21 c137 -98 357 -317 465 -462 35 -48 43 -66 43 -103 0 -47 -17 -88 -46
-114 -21 -18 -643 -379 -654 -379 -3 0 -35 36 -69 79 -69 88 -178 195 -264
261 -32 23 -57 46 -57 50 0 4 84 153 188 331 206 356 216 369 302 369 36 0 56
-7 92 -32z"/>
<path d="M2885 4176 c254 -68 447 -178 625 -356 175 -174 288 -373 356 -625
15 -53 22 -72 19 -45 -8 64 -67 235 -111 322 -125 251 -337 468 -583 597 -104
54 -278 116 -351 126 -27 3 -8 -4 45 -19z"/>
</g>
</svg>
