<?xml version="1.0" standalone="no"?>
<!DOCTYPE svg PUBLIC "-//W3C//DTD SVG 20010904//EN"
 "http://www.w3.org/TR/2001/REC-SVG-20010904/DTD/svg10.dtd">
<svg version="1.0" xmlns="http://www.w3.org/2000/svg"
 width="512.000000pt" height="512.000000pt" viewBox="0 0 512.000000 512.000000"
 preserveAspectRatio="xMidYMid meet">
<metadata>
Created by potrace 1.16, written by Peter Selinger 2001-2019
</metadata>
<g transform="translate(0.000000,512.000000) scale(0.100000,-0.100000)"
fill="#000000" stroke="none">
<path d="M2270 5105 c-198 -28 -452 -101 -623 -179 -42 -19 -77 -39 -77 -45 0
-7 280 -500 295 -518 1 -2 41 13 90 33 192 77 387 115 601 115 227 0 410 -35
613 -117 46 -18 85 -33 87 -31 12 14 294 511 294 518 0 6 -34 26 -76 45 -154
70 -366 135 -559 170 -123 23 -513 28 -645 9z"/>
<path d="M1024 4904 c-137 -92 -405 -360 -498 -498 -45 -67 -26 -176 37 -216
95 -59 641 -370 650 -370 7 1 30 26 52 57 52 72 216 236 288 288 31 22 56 45
57 52 0 9 -313 559 -370 650 -40 63 -149 82 -216 37z"/>
<path d="M3929 4909 c-19 -12 -41 -31 -49 -42 -57 -91 -370 -641 -370 -650 1
-7 26 -30 57 -52 72 -52 236 -216 288 -288 22 -31 45 -56 52 -57 9 0 559 313
650 370 64 41 82 149 36 218 -92 135 -361 405 -497 496 -49 33 -115 35 -167 5z"/>
<path d="M2380 4213 c-72 -11 -221 -48 -277 -69 -401 -151 -715 -497 -839
-924 -55 -190 -54 -144 -54 -1742 l0 -1478 1350 0 1350 0 0 1503 c0 1665 3
1592 -66 1797 -157 469 -565 821 -1049 904 -82 15 -344 20 -415 9z m296 -307
c202 -16 446 -133 610 -293 158 -154 252 -328 301 -553 17 -80 18 -157 18
-1210 0 -1107 0 -1126 -20 -1158 -11 -18 -36 -43 -55 -55 l-35 -22 -935 0
-935 0 -35 22 c-19 12 -44 37 -55 55 -20 32 -20 51 -20 1158 0 1235 -2 1184
61 1364 131 375 497 661 889 695 50 4 101 6 115 5 14 -2 57 -5 96 -8z"/>
<path d="M2428 3613 c-17 -4 -18 -77 -18 -1354 l0 -1349 150 0 150 0 0 1349 0
1349 -22 6 c-26 7 -234 6 -260 -1z"/>
<path d="M2026 3398 c-84 -85 -147 -185 -184 -295 l-27 -78 -3 -1058 -2 -1057
150 0 150 0 0 1280 c0 704 -3 1280 -6 1280 -3 0 -39 -33 -78 -72z"/>
<path d="M3010 2191 l0 -1281 150 0 150 0 -2 1057 -3 1058 -28 80 c-48 135
-149 282 -238 346 l-29 20 0 -1280z"/>
<path d="M505 3788 c-94 -205 -185 -562 -185 -728 l0 -40 300 0 300 0 4 23 c3
12 8 45 11 72 11 85 61 266 99 359 20 49 35 90 33 92 -14 12 -511 294 -518
294 -6 0 -25 -33 -44 -72z"/>
<path d="M4310 3715 c-135 -79 -248 -145 -253 -147 -4 -2 9 -44 29 -93 38 -94
88 -275 99 -360 3 -27 8 -60 11 -72 l4 -23 300 0 300 0 0 40 c0 62 -28 234
-56 349 -49 196 -149 452 -176 450 -7 0 -123 -65 -258 -144z"/>
<path d="M66 2701 c-65 -43 -66 -47 -66 -361 0 -314 1 -318 66 -361 27 -18 54
-19 437 -19 l407 0 0 380 0 380 -407 0 c-383 0 -410 -1 -437 -19z"/>
<path d="M4210 2340 l0 -380 408 0 c547 0 502 -34 502 380 0 314 -1 318 -66
361 -27 18 -54 19 -436 19 l-408 0 0 -380z"/>
<path d="M300 1360 l0 -300 305 0 305 0 0 300 0 300 -305 0 -305 0 0 -300z"/>
<path d="M4210 1360 l0 -300 305 0 305 0 0 300 0 300 -305 0 -305 0 0 -300z"/>
<path d="M66 741 c-65 -43 -66 -47 -66 -361 0 -314 1 -318 66 -361 27 -18 54
-19 437 -19 l407 0 0 380 0 380 -407 0 c-383 0 -410 -1 -437 -19z"/>
<path d="M4210 380 l0 -380 408 0 c547 0 502 -34 502 380 0 314 -1 318 -66
361 -27 18 -54 19 -436 19 l-408 0 0 -380z"/>
</g>
</svg>
