<?xml version="1.0" standalone="no"?>
<!DOCTYPE svg PUBLIC "-//W3C//DTD SVG 20010904//EN"
 "http://www.w3.org/TR/2001/REC-SVG-20010904/DTD/svg10.dtd">
<svg version="1.0" xmlns="http://www.w3.org/2000/svg"
 width="512.000000pt" height="512.000000pt" viewBox="0 0 512.000000 512.000000"
 preserveAspectRatio="xMidYMid meet">
<metadata>
Created by potrace 1.16, written by Peter Selinger 2001-2019
</metadata>
<g transform="translate(0.000000,512.000000) scale(0.100000,-0.100000)"
fill="#000000" stroke="none">
<path d="M2296 4789 c-224 -29 -449 -98 -657 -200 -137 -68 -349 -202 -349
-220 0 -10 298 -379 307 -379 3 0 42 24 86 54 196 129 425 216 647 246 47 6
100 14 118 16 l32 5 0 244 0 245 -57 -1 c-32 -1 -89 -6 -127 -10z"/>
<path d="M2640 4555 l0 -244 33 -5 c17 -2 70 -10 117 -16 226 -30 448 -115
647 -246 44 -30 83 -54 86 -54 9 0 307 368 307 379 0 18 -215 153 -351 220
-212 105 -432 171 -669 201 -46 5 -104 10 -127 10 l-43 0 0 -245z"/>
<path d="M1059 4163 c-115 -119 -168 -184 -253 -315 -68 -104 -173 -320 -215
-440 -27 -79 -28 -87 -13 -92 200 -60 434 -126 445 -126 9 0 23 25 37 63 68
190 195 396 335 545 l87 92 -58 73 c-135 167 -247 302 -253 305 -4 1 -54 -46
-112 -105z"/>
<path d="M3895 4207 c-28 -34 -97 -119 -154 -189 l-103 -127 85 -91 c140 -149
259 -339 328 -522 18 -49 38 -88 44 -88 9 0 352 97 447 126 15 5 14 13 -13 92
-65 187 -194 425 -318 587 -46 61 -249 275 -260 275 -3 0 -29 -28 -56 -63z"/>
<path d="M2435 4154 c-16 -2 -49 -7 -72 -10 l-43 -5 0 -110 0 -109 240 0 240
0 0 109 0 109 -27 6 c-37 7 -300 16 -338 10z"/>
<path d="M1497 3690 c-77 -81 -156 -191 -198 -272 l-29 -58 1290 0 c709 0
1290 3 1290 6 0 12 -80 142 -126 204 -26 36 -74 93 -107 128 l-60 62 -997 0
-998 0 -65 -70z"/>
<path d="M1360 3120 l0 -80 240 0 240 0 0 80 0 80 -240 0 -240 0 0 -80z"/>
<path d="M2320 3120 l0 -80 240 0 240 0 0 80 0 80 -240 0 -240 0 0 -80z"/>
<path d="M3280 3120 l0 -80 240 0 240 0 0 80 0 80 -240 0 -240 0 0 -80z"/>
<path d="M516 3138 c-32 -173 -36 -246 -36 -650 l0 -418 239 0 238 0 6 403 c5
274 11 427 21 482 7 44 13 81 11 83 -5 5 -444 132 -458 132 -9 0 -17 -13 -21
-32z"/>
<path d="M4341 3104 c-117 -35 -215 -64 -216 -66 -1 -2 4 -39 11 -83 10 -55
16 -208 21 -482 l6 -403 238 0 239 0 0 418 c0 319 -4 440 -15 517 -25 166 -25
165 -49 164 -11 -1 -117 -30 -235 -65z"/>
<path d="M1120 2680 l0 -200 1440 0 1440 0 0 200 0 200 -1440 0 -1440 0 0
-200z"/>
<path d="M1360 2195 l0 -125 116 -155 c64 -85 120 -155 124 -155 4 0 60 70
124 155 l116 155 0 125 0 125 -240 0 -240 0 0 -125z"/>
<path d="M2320 2195 l0 -125 116 -155 c64 -85 120 -155 124 -155 4 0 60 70
124 155 l116 155 0 125 0 125 -240 0 -240 0 0 -125z"/>
<path d="M3280 2195 l0 -125 116 -155 c64 -85 120 -155 124 -155 4 0 60 70
124 155 l116 155 0 125 0 125 -240 0 -240 0 0 -125z"/>
<path d="M480 1440 l0 -480 240 0 240 0 0 480 0 480 -240 0 -240 0 0 -480z"/>
<path d="M4160 1440 l0 -480 240 0 240 0 0 480 0 480 -240 0 -240 0 0 -480z"/>
<path d="M340 780 c-19 -19 -20 -33 -20 -220 0 -187 1 -201 20 -220 20 -20 33
-20 2220 -20 2187 0 2200 0 2220 20 19 19 20 33 20 220 0 187 -1 201 -20 220
-20 20 -33 20 -2220 20 -2187 0 -2200 0 -2220 -20z"/>
</g>
</svg>
