<?xml version="1.0" standalone="no"?>
<!DOCTYPE svg PUBLIC "-//W3C//DTD SVG 20010904//EN"
 "http://www.w3.org/TR/2001/REC-SVG-20010904/DTD/svg10.dtd">
<svg version="1.0" xmlns="http://www.w3.org/2000/svg"
 width="600.000000pt" height="900.000000pt" viewBox="0 0 600.000000 900.000000"
 preserveAspectRatio="xMidYMid meet">
<metadata>
Created by potrace 1.16, written by Peter Selinger 2001-2019
</metadata>
<g transform="translate(0.000000,900.000000) scale(0.100000,-0.100000)"
fill="#000000" stroke="none">
<path d="M3006 5778 c3 -4 -1 -8 -9 -8 -25 0 -269 -125 -394 -201 -305 -187
-415 -239 -551 -265 -129 -24 -159 -59 -148 -178 29 -318 55 -501 82 -588 4
-14 -1 -18 -24 -18 -36 0 -60 -24 -44 -43 6 -7 10 -26 9 -43 -1 -20 2 -28 12
-26 9 2 12 -4 8 -17 -3 -14 1 -22 13 -26 20 -6 29 -41 25 -92 -1 -18 -3 -49
-4 -69 0 -19 -5 -33 -10 -30 -5 3 -12 -1 -15 -10 -3 -9 -2 -12 5 -9 6 4 13 -3
16 -15 6 -24 31 -22 86 5 26 13 29 12 36 -8 46 -118 157 -337 212 -417 185
-270 461 -526 686 -636 66 -33 82 -28 227 66 290 189 493 407 657 705 84 152
181 406 220 575 32 140 67 321 74 380 3 30 7 71 10 90 2 19 7 67 10 105 3 39
8 97 11 131 11 108 -23 145 -152 168 -127 22 -236 75 -549 266 -179 109 -367
198 -442 208 -34 5 -60 5 -57 0z"/>
<path d="M1645 4803 c-38 -8 -75 -20 -82 -26 -13 -14 -35 -90 -23 -82 14 9 28
-19 35 -72 5 -36 3 -53 -4 -53 -6 0 -11 -5 -11 -11 0 -6 6 -9 14 -6 17 7 26
-13 26 -58 0 -19 5 -37 10 -40 19 -12 10 -23 -26 -29 -21 -4 -41 -3 -49 4 -10
8 -13 7 -11 -7 1 -13 -11 -19 -49 -27 -27 -5 -53 -13 -56 -18 -4 -6 -28 -13
-54 -15 -26 -3 -49 -12 -52 -19 -3 -8 -20 -14 -42 -14 -21 0 -46 -7 -57 -15
-27 -20 -68 -18 -89 5 -15 17 -27 19 -82 16 -40 -3 -72 -11 -83 -21 -9 -8 -24
-13 -32 -10 -9 4 -22 -4 -33 -22 -10 -15 -18 -30 -17 -33 0 -3 -9 -15 -20 -27
-12 -13 -18 -26 -15 -30 4 -3 7 -1 7 5 0 7 7 12 16 12 13 0 14 -3 5 -13 -6 -8
-7 -17 -3 -21 4 -4 -2 -14 -12 -22 -12 -8 -15 -14 -7 -14 9 0 12 -9 9 -25 -3
-14 -1 -23 6 -22 6 1 10 -7 8 -18 -1 -11 8 -30 20 -42 53 -52 81 -72 92 -65 6
3 31 8 56 9 58 3 82 7 99 17 8 5 16 4 21 -4 5 -9 9 -9 14 -1 4 6 4 11 0 11 -3
0 -1 7 6 15 18 21 35 19 19 -2 -13 -16 -12 -17 3 -4 10 7 16 17 13 21 -3 5 1
11 7 13 10 4 10 6 1 6 -7 1 -13 6 -13 11 0 13 47 13 55 0 4 -7 14 -5 28 5 26
18 73 20 83 3 5 -8 2 -9 -9 -5 -10 3 -17 2 -17 -3 0 -14 17 -12 43 4 23 15 48
19 105 17 19 -1 31 -5 27 -11 -4 -6 12 -9 42 -8 43 1 44 2 11 5 -21 2 -38 9
-38 14 0 5 17 9 38 9 20 0 51 1 67 2 28 3 30 1 30 -32 0 -19 4 -41 8 -47 5 -8
4 -13 -2 -13 -17 0 -13 -21 7 -36 11 -9 13 -13 4 -14 -10 0 -12 -11 -7 -47 3
-26 11 -53 17 -60 7 -9 7 -13 -1 -13 -6 0 -11 -5 -11 -11 0 -5 4 -8 9 -5 5 3
15 -1 22 -10 10 -12 10 -20 1 -35 -14 -22 -7 -43 11 -32 15 9 15 9 102 24 84
15 104 31 100 85 -2 21 -4 44 -6 49 -1 6 1 18 6 29 5 11 3 26 -4 38 -10 16 -9
23 1 36 10 12 10 14 1 8 -10 -5 -13 5 -14 41 0 26 -3 96 -5 156 -4 96 -3 108
13 114 15 6 14 8 -7 13 -25 6 -33 25 -47 123 -3 20 -9 37 -14 37 -5 0 -9 7 -9
16 0 9 -9 27 -20 41 -11 14 -20 33 -20 42 0 9 -6 27 -13 41 -8 14 -17 41 -20
59 -6 27 -4 32 9 27 20 -8 8 13 -22 37 -13 9 -24 27 -26 39 -4 28 -10 29 -93
11z"/>
</g>
</svg>
